<?xml version="1.0" encoding="UTF-8" standalone="no"?>
<!-- Created with Inkscape (http://www.inkscape.org/) -->

<svg
   width="4.2405701mm"
   height="4.2405701mm"
   viewBox="0 0 4.2405701 4.2405701"
   version="1.1"
   id="svg1014"
   sodipodi:docname="rotate.svg"
   inkscape:version="1.1.1 (3bf5ae0d25, 2021-09-20, custom)"
   xmlns:inkscape="http://www.inkscape.org/namespaces/inkscape"
   xmlns:sodipodi="http://sodipodi.sourceforge.net/DTD/sodipodi-0.dtd"
   xmlns="http://www.w3.org/2000/svg"
   xmlns:svg="http://www.w3.org/2000/svg">
  <sodipodi:namedview
     id="namedview8"
     pagecolor="#ffffff"
     bordercolor="#666666"
     borderopacity="1.0"
     inkscape:pageshadow="2"
     inkscape:pageopacity="0.0"
     inkscape:pagecheckerboard="0"
     inkscape:document-units="mm"
     showgrid="false"
     inkscape:zoom="48.417232"
     inkscape:cx="8.085964"
     inkscape:cy="8.0549833"
     inkscape:window-width="1920"
     inkscape:window-height="1011"
     inkscape:window-x="0"
     inkscape:window-y="0"
     inkscape:window-maximized="1"
     inkscape:current-layer="svg1014" />
  <defs
     id="defs1011" />
  <g
     id="layer1"
     transform="translate(-110.40273,-105.04466)">
    <path
       d="m 111.19873,105.04466 v 1.32292 c 0.26045,-0.001 0.55914,0.005 0.79375,0 h 0.52917 l -0.47956,-0.47956 v -0.008 c 0.0982,-0.19327 0.33176,-0.339 0.62838,-0.339 0.45579,0 0.68523,0.3576 0.68523,0.82993 l 0.24082,0.004 c 0.14572,0.002 0.27181,-0.14469 0.24804,-0.28835 0,-0.59635 -0.54673,-1.0418 -1.17409,-1.0418 -0.40721,0 -0.78031,0.185 -0.99218,0.47956 z m 0,0"
       id="path137"
       style="fill:#2e3436;stroke-width:0.264583" />
    <path
       d="m 112.1165,106.89674 h 0.81029 c 0.0682,0 0.12402,0.061 0.12402,0.13643 v 0.25631 c 0,0.0755 -0.0558,0.13643 -0.12402,0.13643 h -0.81029 c -0.0682,0 -0.12402,-0.061 -0.12402,-0.13643 v -0.25631 c 0,-0.0755 0.0558,-0.13643 0.12402,-0.13643 z m 0,0"
       id="path139"
       style="fill:#2e3436;stroke-width:0.264583" />
    <path
       d="m 113.84766,109.28523 v -1.32292 c -0.26045,0.001 -0.56017,-0.005 -0.79375,0 h -0.52916 l 0.47955,0.47956 v 0.008 c -0.0982,0.19223 -0.33279,0.33899 -0.62838,0.33899 -0.45579,0 -0.68626,-0.3576 -0.68626,-0.82992 l -0.23978,-0.004 c -0.14573,-0.002 -0.27182,0.14469 -0.24805,0.28835 0,0.59635 0.5457,1.0418 1.17409,1.0418 0.40721,0 0.78031,-0.185 0.99219,-0.47956 z m 0,0"
       id="path141"
       style="fill:#2e3436;stroke-width:0.264583" />
  </g>
</svg>
